<svg width="32" height="32" viewBox="0 0 32 32" fill="none" xmlns="http://www.w3.org/2000/svg">
<path fill-rule="evenodd" clip-rule="evenodd" d="M14.5 14.5V10H10V14.5H14.5ZM10 9H14.5C15.052 9 15.5 9.448 15.5 10V14.5C15.5 15.052 15.052 15.5 14.5 15.5H10C9.448 15.5 9 15.052 9 14.5V10C9 9.448 9.448 9 10 9ZM14.5 22V17.5H10V22H14.5ZM10 16.5H14.5C15.052 16.5 15.5 16.948 15.5 17.5V22C15.5 22.552 15.052 23 14.5 23H10C9.448 23 9 22.552 9 22V17.5C9 16.948 9.448 16.5 10 16.5ZM22 10V14.5H17.5V10H22ZM22 9H17.5C16.948 9 16.5 9.448 16.5 10V14.5C16.5 15.052 16.948 15.5 17.5 15.5H22C22.552 15.5 23 15.052 23 14.5V10C23 9.448 22.552 9 22 9ZM22 22V17.5H17.5V22H22ZM17.5 16.5H22C22.552 16.5 23 16.948 23 17.5V22C23 22.552 22.552 23 22 23H17.5C16.948 23 16.5 22.552 16.5 22V17.5C16.5 16.948 16.948 16.5 17.5 16.5Z" fill="currentColor"/>
</svg>
