<svg width="32" height="32" viewBox="0 0 32 32" fill="none" xmlns="http://www.w3.org/2000/svg">
  <path fill="currentColor" fill-rule="evenodd" clip-rule="evenodd" d="M12 10.5C12 11.3284 11.3284 12 10.5 12C9.67157 12 9 11.3284 9 10.5C9 9.67157 9.67157 9 10.5 9C11.3284 9 12 9.67157 12 10.5ZM13.75 9.75H22.25C22.664 9.75 23 10.086 23 10.5C23 10.914 22.664 11.25 22.25 11.25H13.75C13.336 11.25 13 10.914 13 10.5C13 10.086 13.336 9.75 13.75 9.75ZM10.5 17.5C11.3284 17.5 12 16.8284 12 16C12 15.1716 11.3284 14.5 10.5 14.5C9.67157 14.5 9 15.1716 9 16C9 16.8284 9.67157 17.5 10.5 17.5ZM13.75 15.25H22.25C22.664 15.25 23 15.586 23 16C23 16.414 22.664 16.75 22.25 16.75H13.75C13.336 16.75 13 16.414 13 16C13 15.586 13.336 15.25 13.75 15.25ZM10.5 23C11.3284 23 12 22.3284 12 21.5C12 20.6716 11.3284 20 10.5 20C9.67157 20 9 20.6716 9 21.5C9 22.3284 9.67157 23 10.5 23ZM13.75 20.75H22.25C22.664 20.75 23 21.086 23 21.5C23 21.914 22.664 22.25 22.25 22.25H13.75C13.336 22.25 13 21.914 13 21.5C13 21.086 13.336 20.75 13.75 20.75Z" />
</svg>
